<svg width="213" height="84" viewBox="0 0 213 84" fill="none" xmlns="http://www.w3.org/2000/svg">
<path d="M11.0561 44.2632C9.92912 46.4268 7.26115 53.1476 10.7111 58.6486C14.6901 64.9782 22.648 71.4919 34.8149 69.6966C46.5678 67.9473 49.3278 64.3798 49.7188 58.1422C50.0177 53.3318 46.8668 53.3318 46.3378 52.8254C45.8318 52.319 45.7168 51.2833 46.8438 51.0991H47.0738H59.1257C60.2527 51.3063 60.1377 52.319 59.6317 52.8254C59.1257 53.3318 56.2737 53.3087 56.2507 58.1422L56.2277 60.6971C56.2277 62.2392 56.1357 67.8553 56.1357 67.8553C56.1357 67.8553 56.3427 69.3744 54.5947 69.2823C52.3407 69.1442 49.1208 69.6966 44.1528 71.5379C33.9409 75.3357 24.465 74.346 17.795 71.2387C9.72213 67.464 6.08816 62.7916 3.74218 56.462C2.10919 52.0658 -1.80077 54.3445 0.959205 50.6848C2.91419 48.107 5.46716 42.8131 6.18016 41.5933C6.18016 41.5933 8.22714 38.1177 9.92912 37.105C10.6881 36.6447 10.8491 37.6574 12.1601 40.9488C12.8041 42.5139 11.9531 42.4909 11.0561 44.2632Z" fill="#05376B"/>
<path d="M30.2813 34.5984C37.4128 34.8729 42.0999 37.4581 43.3109 37.9614C43.7594 38.1444 44.2304 37.0463 44.4995 36.2456C44.6789 35.6736 45.3292 34.1866 44.791 33.7519C44.3201 33.3859 39.8124 30.183 30.3037 30C30.0122 30 29.6982 30 29.6982 30C20.1671 30.1601 15.6819 33.3859 15.1885 33.7519C14.6951 34.0951 15.3006 35.6736 15.5249 36.2456C15.8389 37.0463 16.1528 38.1444 16.5341 37.9843C17.7227 37.4581 22.5443 34.8272 29.6982 34.5755C29.7206 34.5984 29.8328 34.5984 30.2813 34.5984Z" fill="#05376B"/>
<path d="M34 25.5C34 26.8776 32.8776 28 31.5 28C30.1224 28 29 26.8776 29 25.5C29 24.1224 30.1224 23 31.5 23C32.8776 23 34 24.1224 34 25.5Z" fill="#05376B"/>
<path d="M32.2339 16.02C32.2339 16.02 39.8035 26.7232 40.3677 26.857C41.355 27.0576 41.6841 27.0576 43.4237 26.7901C45.1633 26.5225 44.8812 25.3407 44.9518 24.9393C45.0223 24.5379 45.1633 23.5568 44.1055 23.9582C42.5069 24.5602 40.4147 25.0731 40.4147 25.0731L23.3244 0.366682C23.3244 0.366682 22.7367 -0.458352 21.5143 0.366682C20.5505 1.03563 21.0206 1.88296 22.2665 3.33234C23.536 4.78173 32.2339 16.02 32.2339 16.02Z" fill="#05376B"/>
<path d="M29.7606 16.02C29.7606 16.02 22.1942 26.7232 21.6303 26.857C20.6669 27.0576 20.3144 27.0576 18.5756 26.7901C16.8367 26.5225 17.1187 25.3407 17.0482 24.9393C16.9777 24.5379 16.8367 23.5568 17.8941 23.9582C19.492 24.5602 21.5833 25.0731 21.5833 25.0731L38.6662 0.366682C38.6662 0.366682 39.2537 -0.458352 40.4756 0.366682C41.4625 1.03563 40.969 1.88296 39.7236 3.33234C38.4548 4.78173 29.7606 16.02 29.7606 16.02Z" fill="#05376B"/>
<path d="M52.0839 44.5932C52.3372 46.8563 51.9918 48 53.0511 48C54.1103 48 54.1794 47.0753 54.4788 46.2236C54.7782 45.3476 55.8374 40.8458 58.0021 39.7994C59.2456 39.1911 59.3838 37.147 58.0942 37.0983C56.8046 37.0497 54.8472 38.4124 52.199 37.1713C51.4621 36.8306 51.1397 36.8306 50.4489 38.7774C50.4489 38.7774 49.712 40.7728 50.1265 40.9918C50.7943 41.3325 51.7845 41.8435 52.0839 44.5932Z" fill="#05376B"/>
<path d="M36.1355 46.5688C35.5155 43.6353 34.7117 41.6648 32.0479 41.6648C29.43 41.6648 27.2943 43.6801 27.2943 48.7857C27.2943 55.1677 29.6596 57.1159 32.3235 56.6904C34.9873 56.2649 35.6992 54.3839 36.7785 52.167C36.7785 52.167 37.1689 51.9207 37.766 52.167C38.363 52.4134 38.5697 52.7492 38.4319 52.9956C36.9852 57.1607 34.551 58.9297 31.7494 58.9969C26.4446 59.1312 23 54.9214 23 49.3455C23 43.6129 27.0187 39 31.8412 39C33.1272 39 34.2524 39.3135 35.4466 39.8733C35.814 40.0525 37.0541 41.1497 37.4445 41.3065C38.0186 41.5528 38.363 41.1497 38.7075 40.5675C38.7075 40.5675 38.8912 40.254 39.3275 40.366C39.7409 40.4779 40.1083 40.7243 39.9705 40.9706L37.4674 46.6584C36.6407 46.7703 36.1355 46.5688 36.1355 46.5688Z" fill="#05376B"/>
<path d="M35.1731 84C38.0177 84 36.5583 82.8586 36.5583 82.8586L34.3074 81.0682L36.9788 75.2047C36.9788 75.2047 37.1519 74.9137 36.5088 75.0256C35.5689 75.1823 34.0848 75.2718 33.1943 75.2942C32.7738 75.2942 32.6996 75.4956 32.6996 75.4956L31.5124 78.5169L30.3004 75.4956C30.3004 75.4956 30.2262 75.3166 29.8057 75.2942C28.9152 75.2718 27.4311 75.2047 26.4912 75.0256C25.8481 74.9137 26.0212 75.2047 26.0212 75.2047L28.6926 81.0682L26.4417 82.8586C26.4417 82.8586 24.9823 84 27.8269 84H35.1731Z" fill="#05376B"/>
<path d="M21.151 62.4332L22.7826 66.8293C22.7826 66.8293 22.8959 67.076 23.2585 67.2106C24.1649 67.5246 25.6832 67.9508 26.5443 67.9956C27.1562 68.0405 26.9749 67.7265 26.9749 67.7265L25.7059 64.4294C25.7059 64.4294 14.7378 35.384 13.1062 30.001C11.4973 24.6181 12.1998 24.2143 12.2904 21.7247C12.3811 19.6388 10.3869 19.7286 9.59375 20.5136C9.41246 20.693 3.92844 26.7937 2.52345 28.6777C1.11845 30.5617 2.65941 31.7505 5.74134 30.5617C8.2794 29.5973 9.57108 32.8495 9.57108 32.8495L21.9894 64.6537" fill="#05376B"/>
<path d="M40.7846 62.5326L39.1683 66.939C39.1683 66.939 39.0545 67.1863 38.6903 67.3212C37.7797 67.6359 36.3228 67.9282 35.4577 67.9956C34.8431 68.0406 35.0252 67.7258 35.0252 67.7258L36.209 64.5335C36.209 64.5335 47.2269 35.42 48.866 30.0244C50.4822 24.6289 49.7765 24.2242 49.6627 21.7288C49.5717 19.638 51.5749 19.7279 52.3717 20.5148C52.5538 20.6946 58.0628 26.8096 59.4742 28.698C60.8856 30.5865 59.3376 31.778 56.2416 30.5865C53.692 29.6198 52.3944 32.8796 52.3944 32.8796L39.9423 64.7583" fill="#05376B"/>
<path fill-rule="evenodd" clip-rule="evenodd" d="M91.5459 25.293C92.7139 25.3268 93.6702 25.3438 94.415 25.3438C95.1598 25.3438 96.1162 25.3268 97.2842 25.293C98.4522 25.2591 99.3577 25.2422 100.001 25.2422C100.424 25.2422 101.008 25.1491 101.753 24.9629L102.235 28.5938C102.117 28.7122 101.914 28.7715 101.626 28.7715C101.474 28.7715 101.389 28.7292 101.372 28.6445C101.135 27.6966 100.843 27.083 100.496 26.8037C100.149 26.5244 99.4932 26.3848 98.5283 26.3848C96.734 26.3848 95.8031 26.5117 95.7354 26.7656C95.583 27.3073 95.5068 28.1536 95.5068 29.3047V38.4707C95.5068 39.4525 95.583 40.2396 95.7354 40.832C95.7692 40.9505 96.0062 41.0648 96.4463 41.1748C96.8864 41.2848 97.1911 41.3398 97.3604 41.3398C97.4281 41.3398 97.4619 41.4668 97.4619 41.7207C97.4619 41.8561 97.445 41.9746 97.4111 42.0762C95.7184 41.9915 94.7367 41.9492 94.4658 41.9492C94.3812 41.9492 93.3656 41.9915 91.4189 42.0762C91.3512 42.0085 91.3174 41.8815 91.3174 41.6953C91.3174 41.4583 91.3512 41.3398 91.4189 41.3398C91.639 41.3398 91.9648 41.2891 92.3965 41.1875C92.8281 41.0859 93.0693 40.9674 93.1201 40.832C93.2386 40.375 93.2979 39.6217 93.2979 38.5723V29.3809C93.2979 27.9082 93.2217 27.0365 93.0693 26.7656C92.9339 26.5117 92.0199 26.3848 90.3271 26.3848C89.3623 26.3848 88.7064 26.5244 88.3594 26.8037C88.0124 27.083 87.7204 27.6966 87.4834 28.6445C87.4665 28.7292 87.3818 28.7715 87.2295 28.7715C86.9417 28.7715 86.7386 28.7122 86.6201 28.5938L87.1025 24.9629C87.8473 25.1491 88.4313 25.2422 88.8545 25.2422C89.4977 25.2422 90.3949 25.2591 91.5459 25.293ZM110.567 30.8789C111.702 30.8789 112.514 31.2852 113.005 32.0977C113.496 32.9102 113.741 34.1628 113.741 35.8555V38.5977C113.741 39.5625 113.809 40.3073 113.944 40.832C113.978 40.9505 114.198 41.0648 114.604 41.1748C115.011 41.2848 115.299 41.3398 115.468 41.3398C115.519 41.3398 115.552 41.4414 115.569 41.6445C115.586 41.8477 115.578 41.9915 115.544 42.0762C113.851 41.9915 112.946 41.9492 112.827 41.9492C112.776 41.9492 111.888 41.9915 110.161 42.0762C110.093 42.0085 110.06 41.8688 110.06 41.6572C110.06 41.4456 110.093 41.3398 110.161 41.3398C110.364 41.3398 110.648 41.2848 111.012 41.1748C111.376 41.0648 111.575 40.9505 111.608 40.832C111.727 40.3411 111.786 39.7487 111.786 39.0547V36.3633C111.786 34.806 111.57 33.7607 111.139 33.2275C110.707 32.6943 110.043 32.4277 109.146 32.4277C108.638 32.4277 108.134 32.6266 107.635 33.0244C107.135 33.4222 106.886 33.7734 106.886 34.0781V38.5723C106.886 39.554 106.953 40.3073 107.089 40.832C107.123 40.9505 107.343 41.0648 107.749 41.1748C108.155 41.2848 108.443 41.3398 108.612 41.3398C108.663 41.3398 108.697 41.4414 108.714 41.6445C108.731 41.8477 108.722 41.9915 108.688 42.0762C106.996 41.9915 106.09 41.9492 105.972 41.9492C105.87 41.9492 104.948 41.9915 103.204 42.0762C103.136 42.0085 103.103 41.8688 103.103 41.6572C103.103 41.4456 103.136 41.3398 103.204 41.3398C103.407 41.3398 103.708 41.2848 104.105 41.1748C104.503 41.0648 104.719 40.9505 104.753 40.832C104.871 40.3411 104.931 39.7572 104.931 39.0801V28.0605C104.931 27.485 104.88 26.9434 104.778 26.4355C104.694 26.1647 104.262 26.0293 103.483 26.0293H103.255C103.153 26.0293 103.103 25.9362 103.103 25.75C103.103 25.4792 103.153 25.3438 103.255 25.3438C103.763 25.293 104.232 25.2253 104.664 25.1406C105.096 25.056 105.434 24.9714 105.68 24.8867C105.925 24.8021 106.132 24.7217 106.302 24.6455C106.471 24.5693 106.59 24.5059 106.657 24.4551L106.784 24.3789H106.835C106.903 24.3789 106.97 24.4255 107.038 24.5186C107.106 24.6117 107.148 24.7005 107.165 24.7852C106.979 25.3268 106.886 26.0631 106.886 26.9941V32.5547C106.886 32.6224 106.903 32.6562 106.937 32.6562C106.953 32.6562 106.979 32.6393 107.013 32.6055C107.385 32.1992 107.914 31.8099 108.6 31.4375C109.285 31.0651 109.941 30.8789 110.567 30.8789ZM121.565 31.8691C120.685 31.8691 120.012 32.2458 119.547 32.999C119.081 33.7523 118.849 34.3743 118.849 34.8652C118.849 34.9837 118.899 35.043 119.001 35.043H123.952C124.037 35.043 124.079 34.9583 124.079 34.7891C124.079 34.2474 123.851 33.6253 123.394 32.9229C122.937 32.2204 122.327 31.8691 121.565 31.8691ZM121.819 30.9297C122.598 30.9297 123.284 31.0778 123.876 31.374C124.468 31.6702 124.921 32.0511 125.234 32.5166C125.548 32.9821 125.776 33.4561 125.92 33.9385C126.064 34.4209 126.136 34.8991 126.136 35.373C126.136 35.7116 126.085 35.9189 125.983 35.9951C125.882 36.0713 125.687 36.1094 125.399 36.1094H119.001C118.866 36.1094 118.798 36.1517 118.798 36.2363C118.798 37.3027 119.119 38.2845 119.763 39.1816C120.406 40.0788 121.337 40.5273 122.556 40.5273C122.911 40.5273 123.25 40.4935 123.571 40.4258C123.893 40.3581 124.168 40.2777 124.396 40.1846C124.625 40.0915 124.82 39.9984 124.98 39.9053C125.141 39.8122 125.281 39.7233 125.399 39.6387L125.577 39.5117C125.679 39.5117 125.729 39.6217 125.729 39.8418C125.729 39.9772 125.679 40.1296 125.577 40.2988C125.239 40.7728 124.739 41.2002 124.079 41.5811C123.419 41.9619 122.7 42.1523 121.921 42.1523C120.516 42.1523 119.31 41.6234 118.303 40.5654C117.296 39.5075 116.792 38.2168 116.792 36.6934C116.792 34.916 117.27 33.5111 118.227 32.4785C119.183 31.446 120.381 30.9297 121.819 30.9297ZM135.538 25.3184C135.944 25.3184 136.994 25.276 138.687 25.1914C138.72 25.2591 138.733 25.3988 138.725 25.6104C138.716 25.8219 138.687 25.9277 138.636 25.9277C138.517 25.9277 138.356 25.9447 138.153 25.9785C137.95 26.0124 137.73 26.097 137.493 26.2324C137.256 26.3678 137.138 26.5456 137.138 26.7656C137.138 27.2565 138.204 30.1087 140.337 35.3223C140.794 36.4733 141.158 37.3704 141.429 38.0137C141.479 38.0983 141.551 38.1195 141.645 38.0771C141.738 38.0348 141.801 37.9714 141.835 37.8867L145.644 28.6953C145.965 27.8659 146.126 27.2734 146.126 26.918C146.126 26.681 145.991 26.4779 145.72 26.3086C145.449 26.1393 145.191 26.0335 144.945 25.9912C144.7 25.9489 144.501 25.9277 144.349 25.9277C144.281 25.9277 144.247 25.8219 144.247 25.6104C144.247 25.3988 144.281 25.2591 144.349 25.1914C145.923 25.276 146.828 25.3184 147.065 25.3184C147.082 25.3184 147.937 25.276 149.63 25.1914C149.664 25.293 149.681 25.4199 149.681 25.5723C149.681 25.8092 149.647 25.9277 149.579 25.9277C148.817 25.9277 148.31 26.1647 148.056 26.6387C147.666 27.3496 147.252 28.2213 146.812 29.2539L141.733 41.3906C141.513 41.9492 141.217 42.2285 140.845 42.2285C140.726 42.2285 140.642 42.1777 140.591 42.0762L135.386 28.9492C134.963 27.832 134.582 27.0195 134.243 26.5117C134.125 26.3255 133.879 26.1816 133.507 26.0801C133.134 25.9785 132.838 25.9277 132.618 25.9277C132.55 25.9277 132.517 25.8177 132.517 25.5977C132.517 25.3945 132.55 25.2591 132.618 25.1914C132.889 25.2083 133.211 25.2253 133.583 25.2422C133.955 25.2591 134.29 25.276 134.586 25.293C134.882 25.3099 135.2 25.3184 135.538 25.3184ZM151.101 27.8574C150.864 27.6035 150.745 27.2988 150.745 26.9434C150.745 26.5879 150.868 26.2874 151.113 26.042C151.359 25.7965 151.659 25.6738 152.015 25.6738C152.37 25.6738 152.671 25.7965 152.916 26.042C153.161 26.2874 153.284 26.5879 153.284 26.9434C153.284 27.2988 153.161 27.5993 152.916 27.8447C152.671 28.0902 152.37 28.2129 152.015 28.2129C151.659 28.2129 151.354 28.0944 151.101 27.8574ZM153.183 38.5723C153.183 39.554 153.25 40.3073 153.386 40.832C153.42 40.9505 153.64 41.0648 154.046 41.1748C154.452 41.2848 154.74 41.3398 154.909 41.3398C154.96 41.3398 154.994 41.4414 155.011 41.6445C155.028 41.8477 155.019 41.9915 154.985 42.0762C153.293 41.9915 152.387 41.9492 152.269 41.9492C152.15 41.9492 151.228 41.9915 149.501 42.0762C149.433 42.0085 149.399 41.8688 149.399 41.6572C149.399 41.4456 149.433 41.3398 149.501 41.3398C149.704 41.3398 150.005 41.2848 150.402 41.1748C150.8 41.0648 151.016 40.9505 151.05 40.832C151.168 40.3411 151.228 39.7487 151.228 39.0547V34.2559C151.228 33.5957 151.109 33.1387 150.872 32.8848C150.703 32.6816 150.495 32.542 150.25 32.4658C150.005 32.3896 149.801 32.3516 149.641 32.3516C149.48 32.3516 149.399 32.3346 149.399 32.3008C149.399 31.8945 149.45 31.6829 149.552 31.666C151.346 31.3952 152.514 31.1751 153.056 31.0059L153.106 30.9805H153.183C153.25 30.9805 153.293 31.0524 153.31 31.1963C153.326 31.3402 153.326 31.446 153.31 31.5137C153.225 32.1908 153.183 32.8001 153.183 33.3418V38.5723ZM161.032 30.9297C162.894 30.9297 164.181 31.3613 164.892 32.2246C164.892 33.3587 164.578 33.9258 163.952 33.9258C163.664 33.9258 163.444 33.8623 163.292 33.7354C163.14 33.6084 162.945 33.3757 162.708 33.0371C162.183 32.2585 161.557 31.8691 160.829 31.8691C160.135 31.8691 159.505 32.1992 158.938 32.8594C158.37 33.5195 158.087 34.5013 158.087 35.8047C158.087 37.1589 158.421 38.2845 159.09 39.1816C159.758 40.0788 160.685 40.5273 161.87 40.5273C162.226 40.5273 162.564 40.4935 162.886 40.4258C163.207 40.3581 163.482 40.2777 163.711 40.1846C163.939 40.0915 164.134 39.9984 164.295 39.9053C164.456 39.8122 164.595 39.7233 164.714 39.6387L164.892 39.5117C164.993 39.5117 165.044 39.6217 165.044 39.8418C165.044 39.9772 164.993 40.1296 164.892 40.2988C164.553 40.7728 164.054 41.2002 163.394 41.5811C162.733 41.9619 162.014 42.1523 161.235 42.1523C159.83 42.1523 158.624 41.6234 157.617 40.5654C156.61 39.5075 156.106 38.2168 156.106 36.6934C156.106 35.1361 156.53 33.7861 157.376 32.6436C158.222 31.501 159.441 30.9297 161.032 30.9297ZM167.231 32.5039H165.759C165.674 32.5039 165.632 32.3262 165.632 31.9707C165.632 31.8691 165.64 31.8099 165.657 31.793C166.148 31.5729 166.681 31.1244 167.257 30.4473C167.443 30.2272 167.625 29.9775 167.803 29.6982C167.98 29.4189 168.129 29.1777 168.247 28.9746C168.366 28.7715 168.425 28.6615 168.425 28.6445C168.933 28.6445 169.187 28.6868 169.187 28.7715V31.2852C169.627 31.2852 170.295 31.2894 171.192 31.2979C172.09 31.3063 172.563 31.3105 172.614 31.3105C172.75 31.3105 172.817 31.3867 172.817 31.5391C172.817 31.8438 172.733 32.1654 172.563 32.5039H169.187V38.7246C169.187 39.4017 169.36 39.9434 169.707 40.3496C170.054 40.7559 170.507 40.959 171.065 40.959C171.573 40.959 172.098 40.7982 172.64 40.4766C172.69 40.4427 172.767 40.5146 172.868 40.6924C172.97 40.8701 173.012 40.9674 172.995 40.9844C172.741 41.2552 172.352 41.5218 171.827 41.7842C171.302 42.0466 170.761 42.1777 170.202 42.1777C169.356 42.1777 168.649 41.8984 168.082 41.3398C167.515 40.7812 167.231 39.9857 167.231 38.9531V32.5039ZM179.093 31.8945C178.196 31.8945 177.464 32.305 176.896 33.126C176.329 33.9469 176.046 34.9499 176.046 36.1348C176.046 37.5228 176.406 38.7119 177.125 39.7021C177.844 40.6924 178.687 41.1875 179.651 41.1875C180.549 41.1875 181.285 40.7643 181.86 39.918C182.436 39.0716 182.724 38.056 182.724 36.8711C182.724 35.5 182.36 34.3278 181.632 33.3545C180.904 32.3812 180.058 31.8945 179.093 31.8945ZM179.372 30.9043C180.896 30.9043 182.199 31.4544 183.282 32.5547C184.366 33.655 184.907 34.9753 184.907 36.5156C184.907 38.0729 184.378 39.4059 183.32 40.5146C182.262 41.6234 180.963 42.1777 179.423 42.1777C177.882 42.1777 176.571 41.6234 175.487 40.5146C174.404 39.4059 173.862 38.0729 173.862 36.5156C173.862 34.9414 174.387 33.6126 175.437 32.5293C176.486 31.446 177.798 30.9043 179.372 30.9043ZM193.062 30.9043C194.06 30.9043 194.72 31.1497 195.042 31.6406C195.042 32.2331 194.949 32.6647 194.763 32.9355C194.576 33.2064 194.348 33.3418 194.077 33.3418C193.772 33.3418 193.493 33.1979 193.239 32.9102C192.985 32.6224 192.638 32.4785 192.198 32.4785C191.674 32.4785 191.216 32.724 190.827 33.2148C190.438 33.7057 190.243 34.222 190.243 34.7637V38.5723C190.243 39.554 190.311 40.3073 190.446 40.832C190.48 40.9505 190.704 41.0648 191.119 41.1748C191.534 41.2848 191.826 41.3398 191.995 41.3398C192.046 41.3398 192.08 41.4414 192.097 41.6445C192.114 41.8477 192.105 41.9915 192.071 42.0762C190.379 41.9915 189.465 41.9492 189.329 41.9492C189.228 41.9492 188.305 41.9915 186.562 42.0762C186.494 42.0085 186.46 41.8688 186.46 41.6572C186.46 41.4456 186.494 41.3398 186.562 41.3398C186.765 41.3398 187.065 41.2848 187.463 41.1748C187.861 41.0648 188.076 40.9505 188.11 40.832C188.229 40.3411 188.288 39.7487 188.288 39.0547V34.2559C188.288 33.5957 188.17 33.1387 187.933 32.8848C187.763 32.6816 187.556 32.542 187.311 32.4658C187.065 32.3896 186.862 32.3516 186.701 32.3516C186.54 32.3516 186.46 32.3346 186.46 32.3008C186.46 31.8945 186.511 31.6829 186.612 31.666C188.407 31.3952 189.575 31.1751 190.116 31.0059C190.133 31.0059 190.159 31.0016 190.192 30.9932L190.243 30.9805C190.311 30.9805 190.353 31.0524 190.37 31.1963C190.387 31.3402 190.387 31.446 190.37 31.5137L190.218 32.7832C190.522 32.3262 190.941 31.8988 191.475 31.501C192.008 31.1032 192.537 30.9043 193.062 30.9043ZM197.534 27.8574C197.297 27.6035 197.179 27.2988 197.179 26.9434C197.179 26.5879 197.301 26.2874 197.547 26.042C197.792 25.7965 198.093 25.6738 198.448 25.6738C198.804 25.6738 199.104 25.7965 199.35 26.042C199.595 26.2874 199.718 26.5879 199.718 26.9434C199.718 27.2988 199.595 27.5993 199.35 27.8447C199.104 28.0902 198.804 28.2129 198.448 28.2129C198.093 28.2129 197.788 28.0944 197.534 27.8574ZM199.616 38.5723C199.616 39.554 199.684 40.3073 199.819 40.832C199.853 40.9505 200.073 41.0648 200.479 41.1748C200.886 41.2848 201.174 41.3398 201.343 41.3398C201.394 41.3398 201.427 41.4414 201.444 41.6445C201.461 41.8477 201.453 41.9915 201.419 42.0762C199.726 41.9915 198.821 41.9492 198.702 41.9492C198.584 41.9492 197.661 41.9915 195.935 42.0762C195.867 42.0085 195.833 41.8688 195.833 41.6572C195.833 41.4456 195.867 41.3398 195.935 41.3398C196.138 41.3398 196.438 41.2848 196.836 41.1748C197.234 41.0648 197.45 40.9505 197.483 40.832C197.602 40.3411 197.661 39.7487 197.661 39.0547V34.2559C197.661 33.5957 197.543 33.1387 197.306 32.8848C197.136 32.6816 196.929 32.542 196.684 32.4658C196.438 32.3896 196.235 32.3516 196.074 32.3516C195.913 32.3516 195.833 32.3346 195.833 32.3008C195.833 31.8945 195.884 31.6829 195.985 31.666C197.78 31.3952 198.948 31.1751 199.489 31.0059L199.54 30.9805H199.616C199.684 30.9805 199.726 31.0524 199.743 31.1963C199.76 31.3402 199.76 31.446 199.743 31.5137C199.659 32.1908 199.616 32.8001 199.616 33.3418V38.5723ZM205.155 40.375C205.443 40.612 205.815 40.7305 206.272 40.7305C206.729 40.7305 207.17 40.5908 207.593 40.3115C208.016 40.0322 208.228 39.7487 208.228 39.4609V36.8457C208.092 36.9134 207.762 37.0319 207.237 37.2012C206.713 37.3704 206.302 37.5186 206.006 37.6455C205.71 37.7725 205.422 37.984 205.143 38.2803C204.863 38.5765 204.724 38.9193 204.724 39.3086C204.724 39.7656 204.868 40.1211 205.155 40.375ZM207.542 30.9297C208.473 30.9297 209.142 31.154 209.548 31.6025C209.954 32.0511 210.157 32.7747 210.157 33.7734V39.6387C210.157 39.9941 210.25 40.2904 210.437 40.5273C210.623 40.7643 210.877 40.8828 211.198 40.8828C211.435 40.8828 211.731 40.7643 212.087 40.5273C212.155 40.5273 212.188 40.5951 212.188 40.7305C212.188 40.9505 212.146 41.1283 212.062 41.2637C211.368 41.8561 210.775 42.1523 210.284 42.1523C209.895 42.1523 209.522 41.9915 209.167 41.6699C208.812 41.3483 208.566 41.0098 208.431 40.6543C208.414 40.6543 208.35 40.7093 208.24 40.8193C208.13 40.9294 207.982 41.0563 207.796 41.2002C207.61 41.3441 207.394 41.4922 207.148 41.6445C206.903 41.7969 206.615 41.9238 206.285 42.0254C205.955 42.127 205.621 42.1777 205.282 42.1777C204.504 42.1777 203.86 41.9704 203.353 41.5557C202.845 41.1409 202.591 40.5189 202.591 39.6895C202.591 39.3171 202.684 38.9658 202.87 38.6357C203.056 38.3057 203.276 38.0348 203.53 37.8232C203.784 37.6117 204.131 37.3958 204.571 37.1758C205.011 36.9557 205.388 36.7907 205.701 36.6807C206.014 36.5706 206.425 36.431 206.933 36.2617C207.44 36.0924 207.796 35.9655 207.999 35.8809C208.151 35.8301 208.228 35.7031 208.228 35.5V33.5957C208.228 33.054 208.058 32.6351 207.72 32.3389C207.381 32.0426 206.975 31.8945 206.501 31.8945C205.993 31.8945 205.57 32.068 205.231 32.415C204.893 32.762 204.724 33.2148 204.724 33.7734C204.724 34.3659 204.377 34.6621 203.683 34.6621C203.209 34.6621 202.879 34.5013 202.692 34.1797C202.692 33.4518 203.226 32.7282 204.292 32.0088C205.358 31.2894 206.442 30.9297 207.542 30.9297ZM101.487 58.8242C101.487 56.4206 102.291 54.3597 103.899 52.6416C105.507 50.9235 107.479 50.0645 109.815 50.0645C111.017 50.0645 113.023 50.4453 115.833 51.207C115.901 53.1367 115.935 54.1862 115.935 54.3555C115.935 54.6094 115.757 54.7363 115.401 54.7363C115.232 54.7363 115.122 54.694 115.071 54.6094C114.614 52.2904 112.888 51.1309 109.892 51.1309C108.199 51.1309 106.785 51.8503 105.651 53.2891C104.517 54.7279 103.95 56.4629 103.95 58.4941C103.95 60.3731 104.572 62.1038 105.816 63.6865C107.061 65.2692 108.622 66.0605 110.501 66.0605C111.991 66.0605 113.091 65.8744 113.802 65.502C113.92 65.4512 113.979 65.3242 113.979 65.1211L113.954 63.0391V62.8613C113.954 61.7611 113.886 61.0332 113.751 60.6777C113.683 60.5085 113.408 60.373 112.926 60.2715C112.443 60.1699 112.067 60.1191 111.796 60.1191C111.728 60.1191 111.694 60.0133 111.694 59.8018C111.694 59.5902 111.728 59.4505 111.796 59.3828C113.963 59.4674 115.071 59.5098 115.122 59.5098C115.257 59.5098 116.172 59.4674 117.864 59.3828C117.898 59.4844 117.915 59.6029 117.915 59.7383C117.915 59.9922 117.881 60.1191 117.813 60.1191C117.712 60.1191 117.479 60.1742 117.115 60.2842C116.751 60.3942 116.493 60.4915 116.341 60.5762C116.172 60.6947 116.087 61.2617 116.087 62.2773C116.087 62.6328 116.1 63.0179 116.125 63.4326C116.15 63.8473 116.163 64.0716 116.163 64.1055C116.163 64.4102 116.222 64.7064 116.341 64.9941C116.459 65.2819 116.519 65.4512 116.519 65.502C116.519 65.6374 116.307 65.7897 115.884 65.959C115.85 65.9759 115.685 66.0394 115.389 66.1494C115.092 66.2594 114.902 66.3314 114.817 66.3652C114.733 66.3991 114.542 66.4626 114.246 66.5557C113.95 66.6488 113.713 66.7122 113.535 66.7461C113.357 66.7799 113.104 66.8307 112.773 66.8984C112.443 66.9661 112.13 67.0127 111.834 67.0381C111.538 67.0635 111.191 67.0889 110.793 67.1143C110.395 67.1396 109.976 67.1523 109.536 67.1523C107.302 67.1523 105.402 66.3314 103.836 64.6895C102.27 63.0475 101.487 61.0925 101.487 58.8242ZM124.444 56.8945C123.547 56.8945 122.815 57.305 122.248 58.126C121.681 58.9469 121.397 59.9499 121.397 61.1348C121.397 62.5228 121.757 63.7119 122.477 64.7021C123.196 65.6924 124.038 66.1875 125.003 66.1875C125.9 66.1875 126.636 65.7643 127.212 64.918C127.787 64.0716 128.075 63.056 128.075 61.8711C128.075 60.5 127.711 59.3278 126.983 58.3545C126.256 57.3812 125.409 56.8945 124.444 56.8945ZM124.724 55.9043C126.247 55.9043 127.55 56.4544 128.634 57.5547C129.717 58.655 130.259 59.9753 130.259 61.5156C130.259 63.0729 129.73 64.4059 128.672 65.5146C127.614 66.6234 126.315 67.1777 124.774 67.1777C123.234 67.1777 121.922 66.6234 120.839 65.5146C119.756 64.4059 119.214 63.0729 119.214 61.5156C119.214 59.9414 119.739 58.6126 120.788 57.5293C121.838 56.446 123.149 55.9043 124.724 55.9043ZM133.183 64.0547V53.0605C133.183 52.485 133.132 51.9434 133.03 51.4355C132.946 51.1647 132.514 51.0293 131.735 51.0293H131.507C131.405 51.0293 131.354 50.9362 131.354 50.75C131.354 50.4792 131.405 50.3438 131.507 50.3438C132.015 50.293 132.484 50.2253 132.916 50.1406C133.348 50.056 133.686 49.9714 133.932 49.8867C134.177 49.8021 134.384 49.7217 134.554 49.6455C134.723 49.5693 134.85 49.5059 134.935 49.4551L135.036 49.3789H135.087C135.155 49.3789 135.222 49.4255 135.29 49.5186C135.358 49.6117 135.4 49.7005 135.417 49.7852C135.231 50.3268 135.138 51.0631 135.138 51.9941V63.5723C135.138 64.554 135.205 65.3073 135.341 65.832C135.375 65.9505 135.595 66.0648 136.001 66.1748C136.407 66.2848 136.695 66.3398 136.864 66.3398C136.915 66.3398 136.949 66.4414 136.966 66.6445C136.983 66.8477 136.974 66.9915 136.94 67.0762C135.248 66.9915 134.342 66.9492 134.224 66.9492C134.122 66.9492 133.2 66.9915 131.456 67.0762C131.388 67.0085 131.354 66.8688 131.354 66.6572C131.354 66.4456 131.388 66.3398 131.456 66.3398C131.659 66.3398 131.96 66.2848 132.357 66.1748C132.755 66.0648 132.971 65.9505 133.005 65.832C133.123 65.3411 133.183 64.7487 133.183 64.0547ZM144.638 49.3535C145.856 49.3535 146.66 49.6836 147.05 50.3438C147.05 51.4102 146.745 51.9434 146.136 51.9434C145.916 51.9434 145.704 51.8122 145.501 51.5498C145.298 51.2874 145.065 51.0208 144.803 50.75C144.54 50.4792 144.223 50.3438 143.851 50.3438C143.106 50.3438 142.53 50.8008 142.124 51.7148C141.718 52.6289 141.515 53.7038 141.515 54.9395V56.2344C141.515 56.319 141.557 56.3613 141.642 56.3613H144.46C144.545 56.3613 144.587 56.4206 144.587 56.5391C144.587 56.8099 144.485 57.1484 144.282 57.5547H141.667C141.565 57.5547 141.515 57.6055 141.515 57.707V63.5723C141.515 64.4863 141.591 65.2396 141.743 65.832C141.777 65.9505 141.984 66.0648 142.365 66.1748C142.746 66.2848 143.013 66.3398 143.165 66.3398C143.216 66.3398 143.25 66.4414 143.267 66.6445C143.284 66.8477 143.275 66.9915 143.241 67.0762C141.548 66.9915 140.643 66.9492 140.524 66.9492C140.474 66.9492 139.585 66.9915 137.858 67.0762C137.825 67.0423 137.799 66.9619 137.782 66.835C137.765 66.708 137.765 66.5938 137.782 66.4922C137.799 66.3906 137.825 66.3398 137.858 66.3398C138.062 66.3398 138.349 66.2848 138.722 66.1748C139.094 66.0648 139.297 65.9505 139.331 65.832C139.5 65.1719 139.585 64.4186 139.585 63.5723V57.7324C139.585 57.6139 139.543 57.5547 139.458 57.5547H138.112C138.062 57.5547 138.036 57.5039 138.036 57.4023C138.036 57.25 138.172 57.0384 138.442 56.7676C138.713 56.4967 139.001 56.3613 139.306 56.3613H139.458C139.543 56.3613 139.585 56.3105 139.585 56.209V55.8789C139.585 54.1016 140.114 52.5697 141.172 51.2832C142.23 49.9967 143.385 49.3535 144.638 49.3535ZM166.151 62.3535C166.151 62.5397 166.033 63.1872 165.796 64.2959C165.559 65.4046 165.39 65.9844 165.288 66.0352C164.052 66.78 162.03 67.1523 159.22 67.1523C156.985 67.1523 155.085 66.3314 153.52 64.6895C151.954 63.0475 151.171 61.0925 151.171 58.8242C151.171 56.4206 151.975 54.3597 153.583 52.6416C155.191 50.9235 157.163 50.0645 159.499 50.0645C161.496 50.0645 163.553 50.276 165.669 50.6992C165.635 52.9675 165.618 54.1862 165.618 54.3555C165.618 54.6094 165.44 54.7363 165.085 54.7363C164.916 54.7363 164.806 54.694 164.755 54.6094C164.704 54.3893 164.641 54.165 164.564 53.9365C164.488 53.708 164.327 53.4118 164.082 53.0479C163.837 52.6839 163.54 52.3708 163.193 52.1084C162.846 51.846 162.355 51.6175 161.721 51.4229C161.086 51.2282 160.371 51.1309 159.575 51.1309C157.916 51.1309 156.503 51.8629 155.335 53.3271C154.167 54.7913 153.583 56.446 153.583 58.291C153.583 59.6621 153.82 60.9232 154.294 62.0742C154.768 63.2253 155.517 64.1774 156.541 64.9307C157.565 65.6839 158.78 66.0605 160.185 66.0605C161.86 66.0605 163.155 65.5697 164.069 64.5879C164.306 64.334 164.514 63.9997 164.691 63.585C164.869 63.1702 165.005 62.8232 165.098 62.5439C165.191 62.2646 165.263 62.125 165.313 62.125C165.415 62.125 165.538 62.1419 165.682 62.1758C165.826 62.2096 165.94 62.2435 166.024 62.2773L166.151 62.3535ZM168.669 64.0547V53.0605C168.669 52.485 168.618 51.9434 168.517 51.4355C168.432 51.1647 168 51.0293 167.222 51.0293H166.993C166.892 51.0293 166.841 50.9362 166.841 50.75C166.841 50.4792 166.892 50.3438 166.993 50.3438C167.501 50.293 167.971 50.2253 168.402 50.1406C168.834 50.056 169.173 49.9714 169.418 49.8867C169.663 49.8021 169.871 49.7217 170.04 49.6455C170.209 49.5693 170.336 49.5059 170.421 49.4551L170.522 49.3789H170.573C170.641 49.3789 170.709 49.4255 170.776 49.5186C170.844 49.6117 170.886 49.7005 170.903 49.7852C170.717 50.3268 170.624 51.0631 170.624 51.9941V63.5723C170.624 64.554 170.692 65.3073 170.827 65.832C170.861 65.9505 171.081 66.0648 171.487 66.1748C171.894 66.2848 172.181 66.3398 172.351 66.3398C172.401 66.3398 172.435 66.4414 172.452 66.6445C172.469 66.8477 172.461 66.9915 172.427 67.0762C170.734 66.9915 169.828 66.9492 169.71 66.9492C169.608 66.9492 168.686 66.9915 166.942 67.0762C166.875 67.0085 166.841 66.8688 166.841 66.6572C166.841 66.4456 166.875 66.3398 166.942 66.3398C167.146 66.3398 167.446 66.2848 167.844 66.1748C168.242 66.0648 168.457 65.9505 168.491 65.832C168.61 65.3411 168.669 64.7487 168.669 64.0547ZM183.128 58.3418V63.4199C183.128 64.1478 183.187 64.791 183.306 65.3496C183.34 65.4681 183.433 65.5612 183.585 65.6289C183.737 65.6966 183.898 65.7389 184.067 65.7559C184.237 65.7728 184.406 65.7812 184.575 65.7812L184.804 65.8066C184.854 65.8236 184.88 65.9167 184.88 66.0859C184.88 66.1367 184.859 66.2171 184.816 66.3271C184.774 66.4372 184.728 66.4922 184.677 66.4922C184.423 66.5091 184.139 66.543 183.826 66.5938C183.513 66.6445 183.221 66.7038 182.95 66.7715C182.679 66.8392 182.425 66.9069 182.188 66.9746C181.951 67.0423 181.765 67.1016 181.63 67.1523L181.401 67.2031C181.266 67.2031 181.198 67.0677 181.198 66.7969V65.502L181.147 65.375C180.03 66.5768 178.922 67.1777 177.821 67.1777C177.195 67.1777 176.658 67.0212 176.209 66.708C175.76 66.3949 175.43 65.9801 175.219 65.4639C175.007 64.9476 174.859 64.4482 174.774 63.9658C174.69 63.4834 174.647 62.9798 174.647 62.4551V59.2559C174.647 58.5957 174.529 58.1387 174.292 57.8848C174.123 57.6816 173.915 57.542 173.67 57.4658C173.424 57.3896 173.221 57.3516 173.061 57.3516C172.9 57.3516 172.819 57.3346 172.819 57.3008C172.819 56.8945 172.87 56.6829 172.972 56.666C174.766 56.3952 175.934 56.1751 176.476 56.0059C176.493 56.0059 176.518 56.0016 176.552 55.9932L176.603 55.9805C176.67 55.9805 176.713 56.0524 176.729 56.1963C176.746 56.3402 176.746 56.446 176.729 56.5137C176.628 57.3262 176.577 57.9525 176.577 58.3926V61.8203C176.577 63.1237 176.772 64.0843 177.161 64.7021C177.55 65.32 178.185 65.6289 179.065 65.6289C179.573 65.6289 180.056 65.43 180.513 65.0322C180.97 64.6344 181.198 64.2917 181.198 64.0039V59.2559C181.198 58.5957 181.08 58.1387 180.843 57.8848C180.674 57.6816 180.466 57.542 180.221 57.4658C179.975 57.3896 179.772 57.3516 179.611 57.3516C179.451 57.3516 179.37 57.3346 179.37 57.3008C179.37 56.8945 179.421 56.6829 179.522 56.666C181.317 56.3952 182.485 56.1751 183.026 56.0059C183.043 56.0059 183.069 56.0016 183.103 55.9932L183.153 55.9805C183.221 55.9805 183.263 56.0524 183.28 56.1963C183.297 56.3402 183.297 56.446 183.28 56.5137C183.179 57.3262 183.128 57.9355 183.128 58.3418ZM191.46 55.8789C193.085 55.8789 194.359 56.4333 195.281 57.542C196.204 58.6507 196.665 59.8314 196.665 61.084C196.665 62.6921 196.068 64.1055 194.875 65.3242C193.682 66.543 192.366 67.1523 190.927 67.1523C190.3 67.1523 189.704 67.0973 189.137 66.9873C188.57 66.8773 188.244 66.8223 188.159 66.8223C188.007 66.8223 187.816 66.8688 187.588 66.9619C187.359 67.055 187.228 67.1016 187.194 67.1016C187.127 67.1016 187.021 67.0762 186.877 67.0254C186.733 66.9746 186.661 66.9154 186.661 66.8477C186.661 66.8307 186.687 66.6911 186.737 66.4287C186.788 66.1663 186.839 65.7813 186.89 65.2734C186.94 64.7656 186.966 64.1986 186.966 63.5723V53.0605C186.966 52.485 186.915 51.9434 186.813 51.4355C186.729 51.1647 186.297 51.0293 185.519 51.0293H185.29C185.188 51.0293 185.138 50.9362 185.138 50.75C185.138 50.4792 185.188 50.3438 185.29 50.3438C185.798 50.293 186.268 50.2253 186.699 50.1406C187.131 50.056 187.469 49.9714 187.715 49.8867C187.96 49.8021 188.168 49.7217 188.337 49.6455C188.506 49.5693 188.633 49.5059 188.718 49.4551L188.819 49.3789H188.87C188.938 49.3789 189.006 49.4255 189.073 49.5186C189.141 49.6117 189.183 49.7005 189.2 49.7852C189.014 50.3268 188.921 51.0631 188.921 51.9941V56.4375C188.921 56.6237 188.946 56.7168 188.997 56.7168C189.014 56.7168 189.039 56.7083 189.073 56.6914C189.31 56.5221 189.674 56.3444 190.165 56.1582C190.656 55.972 191.088 55.8789 191.46 55.8789ZM190.647 57.123C190.174 57.123 189.767 57.2542 189.429 57.5166C189.09 57.779 188.921 58.1556 188.921 58.6465V64.5625C188.921 65.0872 189.171 65.4723 189.67 65.7178C190.169 65.9632 190.749 66.0859 191.409 66.0859C192.374 66.0859 193.127 65.6289 193.669 64.7148C194.211 63.8008 194.481 62.7682 194.481 61.6172C194.481 60.2799 194.13 59.1966 193.428 58.3672C192.725 57.5378 191.799 57.123 190.647 57.123Z" fill="#05376B"/>
</svg>
