<svg width="15" height="14" viewBox="0 0 15 14" fill="none" xmlns="http://www.w3.org/2000/svg">
<path d="M6.20349 0.781172C6.51109 -0.122528 7.78919 -0.122518 8.09679 0.781172L9.08029 3.67063C9.21819 4.0759 9.59889 4.34841 10.027 4.34841H13.1072C14.0871 4.34841 14.4823 5.61166 13.6771 6.17013L11.2663 7.84206C10.8994 8.0965 10.7457 8.5633 10.8896 8.986L11.829 11.7461C12.1399 12.6593 11.1051 13.4398 10.3125 12.89L7.71999 11.0921C7.37729 10.8543 6.92299 10.8543 6.58019 11.0921L3.98769 12.89C3.19509 13.4398 2.16039 12.6593 2.47119 11.7461L3.41069 8.986C3.55449 8.5633 3.40079 8.0965 3.03389 7.84206L0.623188 6.17013C-0.182112 5.61166 0.213088 4.34841 1.19309 4.34841H4.27329C4.70139 4.34841 5.08199 4.0759 5.21989 3.67063L6.20349 0.781172Z" fill="#FFA858"/>
</svg>
